<svg xmlns="http://www.w3.org/2000/svg" xmlns:xlink="http://www.w3.org/1999/xlink" width="1920" zoomAndPan="magnify" viewBox="0 0 1440 809.999993" height="1080" preserveAspectRatio="xMidYMid meet" version="1.0"><defs><g/></defs><rect x="-144" width="1728" fill="#ffffff" y="-80.999999" height="971.999992" fill-opacity="1"/><rect x="-144" width="1728" fill="#ffffff" y="-80.999999" height="971.999992" fill-opacity="1"/><path fill="#3882ff" d="M 0 0 L 1439.648438 0 L 1439.648438 810 L 0 810 Z M 0 0 " fill-opacity="1" fill-rule="nonzero"/><g fill="#ffffff" fill-opacity="1"><g transform="translate(183.844497, 513.034785)"><g><path d="M 20.859375 -119.453125 L 157.875 -178.734375 L 157.875 -138.21875 L 75.671875 -104.859375 C 72.890625 -103.660156 69.910156 -102.765625 66.734375 -102.171875 C 63.554688 -101.578125 60.578125 -101.179688 57.796875 -100.984375 C 54.617188 -100.585938 51.539062 -100.390625 48.5625 -100.390625 L 48.5625 -97.40625 C 51.539062 -97.207031 54.617188 -96.910156 57.796875 -96.515625 C 60.578125 -96.117188 63.554688 -95.570312 66.734375 -94.875 C 69.910156 -94.175781 72.890625 -93.234375 75.671875 -92.046875 L 157.875 -58.6875 L 157.875 -17.875 L 20.859375 -76.859375 Z M 20.859375 -119.453125 "/></g></g></g><g fill="#ffffff" fill-opacity="1"><g transform="translate(362.561246, 513.034785)"><g><path d="M 18.765625 0 L 18.765625 -214.484375 L 90.5625 -214.484375 C 101.675781 -214.484375 111.703125 -213.191406 120.640625 -210.609375 C 129.578125 -208.023438 137.171875 -204.347656 143.421875 -199.578125 C 149.679688 -194.816406 154.5 -189.0625 157.875 -182.3125 C 161.257812 -175.5625 162.953125 -168.015625 162.953125 -159.671875 C 162.953125 -146.359375 159.226562 -135.628906 151.78125 -127.484375 C 144.332031 -119.347656 134.050781 -114.6875 120.9375 -113.5 L 120.9375 -110.21875 C 135.238281 -109.226562 146.457031 -104.460938 154.59375 -95.921875 C 162.738281 -87.378906 166.8125 -76.160156 166.8125 -62.265625 C 166.8125 -52.722656 165.070312 -44.128906 161.59375 -36.484375 C 158.125 -28.835938 153.160156 -22.285156 146.703125 -16.828125 C 140.253906 -11.367188 132.410156 -7.195312 123.171875 -4.3125 C 113.941406 -1.4375 103.664062 0 92.34375 0 Z M 61.96875 -93.234375 L 61.96875 -35.75 L 90.5625 -35.75 C 100.488281 -35.75 108.179688 -38.226562 113.640625 -43.1875 C 119.109375 -48.15625 121.84375 -55.207031 121.84375 -64.34375 C 121.84375 -73.476562 119.109375 -80.578125 113.640625 -85.640625 C 108.179688 -90.703125 100.488281 -93.234375 90.5625 -93.234375 Z M 61.96875 -178.734375 L 61.96875 -128.984375 L 89.96875 -128.984375 C 98.5 -128.984375 105.296875 -131.265625 110.359375 -135.828125 C 115.429688 -140.398438 117.96875 -146.460938 117.96875 -154.015625 C 117.96875 -161.554688 115.484375 -167.5625 110.515625 -172.03125 C 105.546875 -176.5 98.695312 -178.734375 89.96875 -178.734375 Z M 61.96875 -178.734375 "/></g></g></g><g fill="#ffffff" fill-opacity="1"><g transform="translate(541.277995, 513.034785)"><g><path d="M 11.921875 0 L 11.921875 -214.484375 L 63.75 -214.484375 L 85.5 -149.546875 C 86.289062 -147.359375 86.882812 -145.070312 87.28125 -142.6875 C 87.675781 -140.300781 88.070312 -138.117188 88.46875 -136.140625 C 88.664062 -133.953125 88.863281 -131.765625 89.0625 -129.578125 L 91.453125 -129.578125 C 91.648438 -131.765625 91.945312 -133.953125 92.34375 -136.140625 C 92.738281 -138.117188 93.132812 -140.300781 93.53125 -142.6875 C 93.9375 -145.070312 94.4375 -147.359375 95.03125 -149.546875 L 114.390625 -214.484375 L 166.8125 -214.484375 L 166.8125 0 L 127.796875 0 L 127.796875 -131.078125 C 127.796875 -136.628906 128.039062 -142.1875 128.53125 -147.75 C 129.03125 -153.3125 129.578125 -158.378906 130.171875 -162.953125 C 130.773438 -168.503906 131.472656 -173.765625 132.265625 -178.734375 L 128.6875 -178.734375 C 127.695312 -173.960938 126.800781 -169.296875 126 -164.734375 C 125.007812 -160.765625 124.117188 -156.644531 123.328125 -152.375 C 122.535156 -148.101562 121.640625 -144.476562 120.640625 -141.5 L 107.234375 -93.828125 L 72.09375 -93.828125 L 57.1875 -141.5 C 56.195312 -144.476562 55.304688 -148.050781 54.515625 -152.21875 C 53.722656 -156.394531 53.023438 -160.46875 52.421875 -164.4375 C 51.628906 -169 50.835938 -173.765625 50.046875 -178.734375 L 46.171875 -178.734375 C 46.960938 -173.765625 47.757812 -168.503906 48.5625 -162.953125 C 49.15625 -158.378906 49.695312 -153.3125 50.1875 -147.75 C 50.6875 -142.1875 50.9375 -136.628906 50.9375 -131.078125 L 50.9375 0 Z M 11.921875 0 "/></g></g></g><g fill="#ffffff" fill-opacity="1"><g transform="translate(719.994744, 513.034785)"><g><path d="M 86.390625 -119.15625 L 164.4375 -119.15625 L 164.4375 -64.046875 C 164.4375 -53.921875 162.648438 -44.734375 159.078125 -36.484375 C 155.503906 -28.242188 150.4375 -21.191406 143.875 -15.328125 C 137.320312 -9.472656 129.425781 -4.957031 120.1875 -1.78125 C 110.957031 1.394531 100.6875 2.984375 89.375 2.984375 C 78.050781 2.984375 67.769531 1.394531 58.53125 -1.78125 C 49.300781 -4.957031 41.40625 -9.472656 34.84375 -15.328125 C 28.289062 -21.191406 23.226562 -28.242188 19.65625 -36.484375 C 16.082031 -44.734375 14.296875 -53.921875 14.296875 -64.046875 L 14.296875 -150.4375 C 14.296875 -160.363281 16.082031 -169.347656 19.65625 -177.390625 C 23.226562 -185.429688 28.289062 -192.28125 34.84375 -197.9375 C 41.40625 -203.601562 49.300781 -208.023438 58.53125 -211.203125 C 67.769531 -214.378906 78.050781 -215.96875 89.375 -215.96875 C 99.894531 -215.96875 109.523438 -214.523438 118.265625 -211.640625 C 127.003906 -208.765625 134.648438 -204.597656 141.203125 -199.140625 C 147.753906 -193.679688 153.015625 -187.078125 156.984375 -179.328125 C 160.960938 -171.585938 163.445312 -162.945312 164.4375 -153.40625 L 119.75 -153.40625 C 118.957031 -160.363281 115.828125 -165.828125 110.359375 -169.796875 C 104.898438 -173.765625 97.90625 -175.75 89.375 -175.75 C 80.03125 -175.75 72.628906 -173.414062 67.171875 -168.75 C 61.710938 -164.082031 58.984375 -157.976562 58.984375 -150.4375 L 58.984375 -64.046875 C 58.984375 -55.503906 61.710938 -48.703125 67.171875 -43.640625 C 72.628906 -38.578125 80.03125 -36.046875 89.375 -36.046875 C 98.707031 -36.046875 106.101562 -38.578125 111.5625 -43.640625 C 117.019531 -48.703125 119.75 -55.503906 119.75 -64.046875 L 119.75 -81.328125 L 86.390625 -81.328125 Z M 86.390625 -119.15625 "/></g></g></g><g fill="#ffffff" fill-opacity="1"><g transform="translate(898.711493, 513.034785)"><g><path d="M 117.671875 -247.25 L 163.84375 -247.25 L 61.0625 32.765625 L 14.890625 32.765625 Z M 117.671875 -247.25 "/></g></g></g><g fill="#ffffff" fill-opacity="1"><g transform="translate(1077.428242, 513.034785)"><g><path d="M 20.859375 -58.09375 L 103.0625 -91.453125 C 106.039062 -92.640625 109.066406 -93.53125 112.140625 -94.125 C 115.222656 -94.726562 118.15625 -95.226562 120.9375 -95.625 C 124.113281 -95.820312 127.191406 -95.921875 130.171875 -95.921875 L 130.171875 -98.90625 C 127.191406 -99.101562 124.113281 -99.398438 120.9375 -99.796875 C 118.15625 -100.191406 115.175781 -100.785156 112 -101.578125 C 108.820312 -102.367188 105.84375 -103.265625 103.0625 -104.265625 L 20.859375 -137.625 L 20.859375 -178.4375 L 157.875 -119.453125 L 157.875 -76.859375 L 20.859375 -17.578125 Z M 20.859375 -58.09375 "/></g></g></g></svg>